<svg width="80" height="80" viewBox="0 0 80 80" fill="none" xmlns="http://www.w3.org/2000/svg">
<path d="M46.25 7.5H48.75V10H46.25V7.5Z" fill="#FF014F"/>
<path d="M26.25 41.25H31.25V43.75H26.25V41.25Z" fill="#FF014F"/>
<path d="M53.75 2.5H26.25C24.2615 2.50199 22.355 3.2928 20.9489 4.69889C19.5428 6.10498 18.752 8.01149 18.75 10V70C18.752 71.9885 19.5428 73.895 20.9489 75.3011C22.355 76.7072 24.2615 77.498 26.25 77.5H53.75C55.7385 77.498 57.645 76.7072 59.0511 75.3011C60.4572 73.895 61.248 71.9885 61.25 70V10C61.248 8.01149 60.4572 6.10498 59.0511 4.69889C57.645 3.2928 55.7385 2.50199 53.75 2.5ZM53.75 75H26.25C24.9239 75 23.6521 74.4732 22.7145 73.5355C21.7768 72.5979 21.25 71.3261 21.25 70V15H56.25V12.5H21.25V10C21.25 8.67392 21.7768 7.40215 22.7145 6.46447C23.6521 5.52678 24.9239 5 26.25 5H53.75C55.0761 5 56.3479 5.52678 57.2855 6.46447C58.2232 7.40215 58.75 8.67392 58.75 10V62.5H23.75V65H58.75V70C58.75 71.3261 58.2232 72.5979 57.2855 73.5355C56.3479 74.4732 55.0761 75 53.75 75Z" fill="#FF014F"/>
<path d="M40 66.25C39.2583 66.25 38.5333 66.4699 37.9166 66.882C37.2999 67.294 36.8193 67.8797 36.5355 68.5649C36.2516 69.2502 36.1774 70.0042 36.3221 70.7316C36.4668 71.459 36.8239 72.1272 37.3484 72.6516C37.8728 73.1761 38.541 73.5333 39.2684 73.6779C39.9958 73.8226 40.7498 73.7484 41.4351 73.4645C42.1203 73.1807 42.706 72.7001 43.118 72.0834C43.5301 71.4667 43.75 70.7417 43.75 70C43.75 69.0054 43.3549 68.0516 42.6517 67.3484C41.9484 66.6451 40.9946 66.25 40 66.25ZM40 71.25C39.7528 71.25 39.5111 71.1767 39.3055 71.0393C39.1 70.902 38.9398 70.7068 38.8452 70.4784C38.7505 70.2499 38.7258 69.9986 38.774 69.7561C38.8223 69.5137 38.9413 69.2909 39.1161 69.1161C39.2909 68.9413 39.5137 68.8222 39.7561 68.774C39.9986 68.7258 40.2499 68.7505 40.4784 68.8452C40.7068 68.9398 40.902 69.1 41.0393 69.3055C41.1767 69.5111 41.25 69.7528 41.25 70C41.25 70.3315 41.1183 70.6495 40.8839 70.8839C40.6495 71.1183 40.3315 71.25 40 71.25Z" fill="#FF014F"/>
<path d="M36.25 7.5H43.75V10H36.25V7.5Z" fill="#FF014F"/>
<path d="M34.6337 32.8662L30.5174 28.75L34.6337 24.6337L32.8662 22.8662L26.9824 28.75L32.8662 34.6337L34.6337 32.8662Z" fill="#FF014F"/>
<path d="M47.1337 34.6337L53.0175 28.75L47.1337 22.8662L45.3662 24.6337L49.4825 28.75L45.3662 32.8662L47.1337 34.6337Z" fill="#FF014F"/>
<path d="M35.2493 34.01L42.0168 22.2887L44.1818 23.5387L37.4143 35.26L35.2493 34.01Z" fill="#FF014F"/>
<path d="M33.75 41.25H53.75V43.75H33.75V41.25Z" fill="#FF014F"/>
<path d="M26.25 46.25H53.75V48.75H26.25V46.25Z" fill="#FF014F"/>
<path d="M26.25 51.25H53.75V53.75H26.25V51.25Z" fill="#FF014F"/>
</svg>
