<svg width="80" height="80" viewBox="0 0 80 80" fill="none" xmlns="http://www.w3.org/2000/svg">
<path d="M56.5474 2.5H23.4529C20.0068 2.5 17.2029 5.30395 17.2029 8.75V28.8367C17.2029 29.527 17.7626 30.0867 18.4529 30.0867C19.1432 30.0867 19.7029 29.527 19.7029 28.8367V8.75C19.7029 6.68213 21.385 5 23.4529 5H56.5474C58.6152 5 60.2974 6.68213 60.2974 8.75V64.3811H19.7029V33.9417C19.7029 33.2513 19.1432 32.6917 18.4529 32.6917C17.7626 32.6917 17.2029 33.2513 17.2029 33.9417V71.25C17.2029 74.6961 20.0068 77.5 23.4529 77.5H56.5474C59.9934 77.5 62.7974 74.6961 62.7974 71.25V8.75C62.7974 5.30395 59.9934 2.5 56.5474 2.5ZM56.5474 75H23.4529C21.385 75 19.7029 73.3179 19.7029 71.25V66.8811H60.2974V71.25C60.2974 73.3179 58.6152 75 56.5474 75Z" fill="#FF014F"/>
<path d="M43.6201 69.6906H36.3801C35.6898 69.6906 35.1301 70.2502 35.1301 70.9406C35.1301 71.6309 35.6898 72.1906 36.3801 72.1906H43.6201C44.3104 72.1906 44.8701 71.6309 44.8701 70.9406C44.8701 70.2502 44.3104 69.6906 43.6201 69.6906Z" fill="#FF014F"/>
<path d="M22.9607 40.9406C22.9607 41.6309 23.5204 42.1906 24.2107 42.1906H36.7107C37.401 42.1906 37.9607 41.6309 37.9607 40.9406V28.4406C37.9607 27.7502 37.401 27.1906 36.7107 27.1906H24.2107C23.5204 27.1906 22.9607 27.7502 22.9607 28.4406V40.9406ZM25.4607 29.6906H35.4607V39.6906H25.4607V29.6906Z" fill="#FF014F"/>
<path d="M42.0393 40.9406C42.0393 41.6309 42.599 42.1906 43.2893 42.1906H55.7893C56.4796 42.1906 57.0393 41.6309 57.0393 40.9406V28.4406C57.0393 27.7502 56.4796 27.1906 55.7893 27.1906H43.2893C42.599 27.1906 42.0393 27.7502 42.0393 28.4406V40.9406ZM44.5393 29.6906H54.5393V39.6906H44.5393V29.6906Z" fill="#FF014F"/>
<path d="M24.2107 23.4253H36.7107C37.401 23.4253 37.9607 22.8656 37.9607 22.1753V9.67529C37.9607 8.98498 37.401 8.42529 36.7107 8.42529H24.2107C23.5204 8.42529 22.9607 8.98498 22.9607 9.67529V22.1753C22.9607 22.8656 23.5204 23.4253 24.2107 23.4253ZM25.4607 10.9253H35.4607V20.9253H25.4607V10.9253Z" fill="#FF014F"/>
<path d="M43.2893 23.4253H55.7893C56.4796 23.4253 57.0393 22.8656 57.0393 22.1753V9.67529C57.0393 8.98498 56.4796 8.42529 55.7893 8.42529H43.2893C42.599 8.42529 42.0393 8.98498 42.0393 9.67529V22.1753C42.0393 22.8656 42.599 23.4253 43.2893 23.4253ZM44.5393 10.9253H54.5393V20.9253H44.5393V10.9253Z" fill="#FF014F"/>
<path d="M22.9607 59.7058C22.9607 60.3961 23.5204 60.9558 24.2107 60.9558H36.7107C37.401 60.9558 37.9607 60.3961 37.9607 59.7058V47.2058C37.9607 46.5155 37.401 45.9558 36.7107 45.9558H24.2107C23.5204 45.9558 22.9607 46.5155 22.9607 47.2058V59.7058ZM25.4607 48.4558H35.4607V58.4558H25.4607V48.4558Z" fill="#FF014F"/>
<path d="M49.5393 60.9558C53.675 60.9558 57.0393 57.5916 57.0393 53.4558C57.0393 52.7655 56.4796 52.2058 55.7893 52.2058C55.099 52.2058 54.5393 52.7655 54.5393 53.4558C54.5393 56.2128 52.2963 58.4558 49.5393 58.4558C46.7823 58.4558 44.5393 56.2128 44.5393 53.4558C44.5393 50.6989 46.7823 48.4558 49.5393 48.4558C50.8015 48.4558 52.0057 48.927 52.931 49.7827C53.4364 50.2509 54.228 50.2203 54.6974 49.7144C55.1668 49.2072 55.1356 48.4167 54.629 47.948C53.2399 46.6632 51.4326 45.9558 49.5393 45.9558C45.4036 45.9558 42.0393 49.3201 42.0393 53.4558C42.0393 57.5915 45.4036 60.9558 49.5393 60.9558Z" fill="#FF014F"/>
</svg>
