<svg width="100" height="100" viewBox="0 0 100 100" fill="none" xmlns="http://www.w3.org/2000/svg">
<path d="M55.2778 22.5383V53.4717C55.2778 73.894 67.0487 81.1786 83.0165 85.2618C85.4498 85.884 87.9678 84.5922 88.8575 82.2434C89.9056 79.4763 88.2738 76.4783 85.4128 75.7235C73.7971 72.659 70.0845 65.1142 71.8961 53.4717H89.5445C93.9382 53.4717 97.5 49.9098 97.5 45.5161V22.5383C97.5 18.1446 93.9382 14.5828 89.5445 14.5828H63.2333C58.8396 14.5828 55.2778 18.1446 55.2778 22.5383Z" fill="#FF014F"/>
<path d="M2.49995 22.5383V53.4717C2.49995 73.894 14.2709 81.1786 30.2386 85.2618C32.672 85.884 35.19 84.5922 36.0797 82.2434C37.1278 79.4763 35.496 76.4783 32.6349 75.7235C21.0193 72.659 17.3067 65.1142 19.1183 53.4717H36.7666C41.1604 53.4717 44.7222 49.9098 44.7222 45.5161V22.5383C44.7222 18.1446 41.1604 14.5828 36.7666 14.5828H10.4555C6.06176 14.5828 2.49995 18.1446 2.49995 22.5383Z" fill="#FF014F"/>
</svg>
