<svg width="80" height="80" viewBox="0 0 80 80" fill="none" xmlns="http://www.w3.org/2000/svg">
<path d="M70.3139 64.8984C75.028 64.8984 78.8633 61.433 78.8633 57.1593V11.2658C78.8633 7.25728 75.2703 4 70.8492 4H8.15129C3.72992 4 0.137207 7.25728 0.137207 11.2658V57.1593C0.137207 61.433 3.97192 64.8984 8.68631 64.8984H28.2391V69.3418H25.9431C23.846 69.3418 22.1377 70.8771 22.1377 72.7784V75.369C22.1377 76.144 22.8366 76.7774 23.6911 76.7774H55.315C56.1695 76.7774 56.8685 76.144 56.8685 75.369V72.7784C56.8685 70.8771 55.1601 69.3418 53.063 69.3418H50.7612V64.8984H70.3139ZM39.5065 61.1442C38.2962 61.1442 37.3151 60.2666 37.3151 59.1689C37.3151 58.0601 38.2962 57.1706 39.5065 57.1706C40.7041 57.1706 41.6851 58.0601 41.6851 59.1689C41.6851 60.2666 40.7041 61.1442 39.5065 61.1442ZM2.68539 53.4514V11.2658C2.68539 8.53988 5.1443 6.31027 8.15129 6.31027H70.8492C73.8559 6.31027 76.3151 8.53988 76.3151 11.2658V53.4514H2.68539Z" fill="#FF014F"/>
<path d="M66.2747 13.3867C64.4696 13.3867 62.9532 14.4265 62.3612 15.9056H44.6566C44.0646 14.4265 42.5338 13.3867 40.7431 13.3867C38.9525 13.3867 37.4361 14.4265 36.8441 15.9056H18.3885C17.7962 14.4265 16.2802 13.3867 14.4751 13.3867C12.1789 13.3867 10.3159 15.1059 10.3159 17.2383C10.3159 19.357 12.1789 21.0761 14.4751 21.0761C16.2802 21.0761 17.7962 20.037 18.3885 18.5709H28.7282C21.1756 22.2624 15.9192 29.4449 15.4859 37.7876H14.5618C13.7386 37.7876 13.0599 38.4006 13.0599 39.1736V43.4911C13.0599 44.2511 13.7386 44.8771 14.5618 44.8771H19.2551C20.078 44.8771 20.7571 44.2511 20.7571 43.4911V39.1736C20.7571 38.4006 20.078 37.7876 19.2551 37.7876H18.3741C18.9371 28.1526 26.8218 20.2764 36.9453 18.824C37.3927 19.7038 38.1581 20.3961 39.1256 20.7827C39.1115 20.8093 39.0967 20.823 39.0826 20.8497L28.4394 40.4926C28.194 40.9592 28.2518 41.5324 28.627 41.932C28.988 42.3452 29.5803 42.5183 30.1289 42.3718L40.3821 39.6799L50.6209 42.3718C51.2977 42.511 51.7974 42.3113 52.1225 41.932C52.4983 41.5324 52.5702 40.9592 52.3104 40.4926L41.725 20.9564C42.9382 20.7033 43.949 19.9433 44.4835 18.9307C54.2886 20.6499 61.8126 28.366 62.3612 37.7876H61.495C60.6717 37.7876 59.9931 38.4006 59.9931 39.1736V43.4911C59.9931 44.2511 60.6717 44.8771 61.495 44.8771H66.1883C67.0112 44.8771 67.6902 44.2511 67.6902 43.4911V39.1736C67.6902 38.4006 67.0112 37.7876 66.1883 37.7876H65.2494C64.8161 29.4449 59.5598 22.2624 52.0072 18.5709H62.3612C62.9532 20.037 64.4696 21.0761 66.2747 21.0761C68.5709 21.0761 70.4339 19.357 70.4339 17.2383C70.4339 15.1059 68.5709 13.3867 66.2747 13.3867Z" fill="#FF014F"/>
</svg>
