<svg width="80" height="80" viewBox="0 0 80 80" fill="none" xmlns="http://www.w3.org/2000/svg">
<path d="M16.2476 2.49829C14.1917 2.49829 12.5 4.19002 12.5 6.2459V46.2459C12.5 47.9142 15.0024 47.9142 15.0024 46.2459V15.0032H64.9951V46.2459C64.9573 47.9504 67.5334 47.9504 67.4951 46.2459V6.2459C67.4951 4.19002 65.8059 2.49829 63.75 2.49829H16.2476ZM16.2476 5.00078H63.75C64.4641 5.00078 64.9951 5.53176 64.9951 6.2459V12.5008H15.0024V6.2459C15.0024 5.53176 15.5335 5.00078 16.2476 5.00078ZM18.75 7.49837C18.0596 7.49837 17.5 8.05806 17.5 8.74839C17.5 9.43877 18.0596 9.99826 18.75 9.99826C19.4403 9.99826 20 9.43877 20 8.74839C20 8.05806 19.4403 7.49837 18.75 7.49837ZM23.75 7.49837C23.0597 7.49837 22.5 8.05806 22.5 8.74839C22.5 9.43877 23.0597 9.99826 23.75 9.99826C24.4404 9.99826 25 9.43877 25 8.74839C25 8.05806 24.4404 7.49837 23.75 7.49837ZM28.75 7.49837C28.0597 7.49837 27.5 8.05806 27.5 8.74839C27.5 9.43877 28.0597 9.99826 28.75 9.99826C29.4404 9.99826 30 9.43877 30 8.74839C30 8.05806 29.4404 7.49837 28.75 7.49837ZM46.1865 7.50082C44.4988 7.61562 44.614 10.0422 46.2452 10.0009H61.25C62.8801 9.96306 62.8801 7.53696 61.25 7.50082H46.1865ZM6.25489 10.0009C4.19901 10.0009 2.5 11.6901 2.5 13.746V58.7483C2.5 60.8042 4.19901 62.4959 6.25489 62.4959H73.7524C75.8083 62.4959 77.5 60.8042 77.5 58.7483V13.7459C77.5 11.69 75.8083 10.0007 73.7524 10.0007H71.2524C69.5484 9.96292 69.5484 12.5385 71.2524 12.5008H73.7524C74.4666 12.5008 74.9976 13.0317 74.9976 13.7459V50.0008H5V13.7459C5 13.0317 5.54079 12.5008 6.25489 12.5008H8.74511C10.4492 12.5385 10.4492 9.96292 8.74511 10.0007L6.25489 10.0009ZM43.7646 19.9788C43.2151 19.9751 42.7277 20.3309 42.5635 20.8554L35.061 43.3529C34.5321 44.9349 36.9051 45.7283 37.4341 44.1463L44.9365 21.6415C45.2195 20.832 44.6221 19.9845 43.7646 19.9788ZM49.1992 27.2054L55.5469 32.5008L49.1992 37.7889C47.8429 38.8507 49.5176 40.8543 50.8032 39.7079L58.2959 33.4603C58.8942 32.9606 58.8942 32.0412 58.2959 31.5414L50.8032 25.2841C50.5792 25.0923 50.2948 24.9859 49.9365 24.9864C48.7549 25.0898 48.3265 26.4992 49.1992 27.2054ZM29.9683 24.9887C29.6867 24.9981 29.4166 25.1021 29.2017 25.284L21.7017 31.5413C21.1033 32.041 21.1033 32.9604 21.7017 33.4601L29.2017 39.7078C30.4916 40.9091 32.2142 38.8387 30.7983 37.7888L24.4507 32.5006L30.7983 27.2053C31.7219 26.449 31.1614 24.9523 29.9683 24.9887ZM5 52.5032H74.9976V58.7483C74.9976 59.4624 74.4666 59.9934 73.7524 59.9934H6.25489C5.54079 59.9934 5 59.4624 5 58.7483V52.5032ZM42.5684 55.0008L37.439 55.0033C35.8456 55.1937 35.9526 57.4509 37.4976 57.4935H42.5C44.2167 57.6452 44.3596 55.0353 42.5684 55.0008ZM32.9883 64.8982C32.4865 64.8887 32.027 65.1779 31.8213 65.6355C31.2193 66.9266 30.1409 68.4342 28.2788 69.9959H26.25C24.1941 69.9959 22.5049 71.6974 22.5049 73.7533V76.2435C22.5024 76.9338 23.0597 77.4956 23.75 77.4983H56.2476C56.9417 77.5008 57.5051 76.9377 57.5024 76.2435V73.7533C57.5024 71.6974 55.8034 69.9959 53.7476 69.9959H51.7212C49.8592 68.4343 48.7806 66.9265 48.1787 65.6355C47.9671 65.1659 47.4893 64.8743 46.9751 64.9006C46.0821 64.9479 45.5244 65.8875 45.9131 66.6928C46.4004 67.7379 47.1444 68.8589 48.147 69.9959H31.853C32.8555 68.8589 33.5996 67.7379 34.0869 66.6928C34.4838 65.873 33.8989 64.9176 32.9883 64.8982ZM26.25 72.4984H53.7476C54.4616 72.4984 55.0024 73.0391 55.0024 73.7533V74.9984H25.0049V73.7533C25.0049 73.0391 25.5359 72.4984 26.25 72.4984Z" fill="#FF014F"/>
</svg>
